<svg id="ekQywUGESzl1" xmlns="http://www.w3.org/2000/svg" xmlns:xlink="http://www.w3.org/1999/xlink" viewBox="0 0 18.23 21.56" shape-rendering="geometricPrecision" text-rendering="geometricPrecision">
<style><![CDATA[
#ekQywUGESzl16_tr {animation: ekQywUGESzl16_tr__tr 3000ms linear infinite normal forwards}@keyframes ekQywUGESzl16_tr__tr { 0% {transform: translate(8.442442px,9.71px) rotate(0.000006deg)} 13.333333% {transform: translate(8.442442px,9.71px) rotate(4.035296deg)} 26.666667% {transform: translate(8.442442px,9.71px) rotate(0.000006deg)} 40% {transform: translate(8.442442px,9.71px) rotate(4.035296deg)} 53.333333% {transform: translate(8.442442px,9.71px) rotate(0deg)} 100% {transform: translate(8.442442px,9.71px) rotate(0deg)}} #ekQywUGESzl32_to {animation: ekQywUGESzl32_to__to 3000ms linear infinite normal forwards}@keyframes ekQywUGESzl32_to__to { 0% {transform: translate(7.59px,19.6px)} 50% {transform: translate(7.59px,19.110002px)} 100% {transform: translate(7.59px,19.6px)}} #ekQywUGESzl44_to {animation: ekQywUGESzl44_to__to 3000ms linear infinite normal forwards}@keyframes ekQywUGESzl44_to__to { 0% {transform: translate(7.48px,19.447206px)} 50% {transform: translate(7.48px,19.042526px)} 100% {transform: translate(7.48px,19.447206px)}} #ekQywUGESzl45_to {animation: ekQywUGESzl45_to__to 3000ms linear infinite normal forwards}@keyframes ekQywUGESzl45_to__to { 0% {transform: translate(7.675px,19.706263px)} 50% {transform: translate(7.675px,19.578737px)} 100% {transform: translate(7.675px,19.71px)}} #ekQywUGESzl46_to {animation: ekQywUGESzl46_to__to 3000ms linear infinite normal forwards}@keyframes ekQywUGESzl46_to__to { 0% {transform: translate(8.41px,20.485px)} 50% {transform: translate(8.41px,20.3px)} 100% {transform: translate(8.41px,20.49px)}} #ekQywUGESzl50_to {animation: ekQywUGESzl50_to__to 3000ms linear infinite normal forwards}@keyframes ekQywUGESzl50_to__to { 0% {transform: translate(16.825001px,15.44px)} 50% {transform: translate(16.825001px,15.56px)} 100% {transform: translate(16.825001px,15.44px)}} #ekQywUGESzl52_to {animation: ekQywUGESzl52_to__to 3000ms linear infinite normal forwards}@keyframes ekQywUGESzl52_to__to { 0% {transform: translate(16.825px,15.57px)} 50% {transform: translate(16.825px,15.73px)} 100% {transform: translate(16.825px,15.59px)}}
]]></style>
<defs><linearGradient id="ekQywUGESzl4-fill" x1="1.73" y1="16.66" x2="1.14" y2="18.28" spreadMethod="pad" gradientUnits="userSpaceOnUse" gradientTransform="translate(0 0)"><stop id="ekQywUGESzl4-fill-0" offset="0%" stop-color="#d7ecf7"/><stop id="ekQywUGESzl4-fill-1" offset="100%" stop-color="#98def0"/></linearGradient><linearGradient id="ekQywUGESzl5-fill" x1="2.98" y1="17.81" x2="4.39" y2="20.02" spreadMethod="pad" gradientUnits="userSpaceOnUse" gradientTransform="translate(0 0)"><stop id="ekQywUGESzl5-fill-0" offset="0%" stop-color="#cfeaf7"/><stop id="ekQywUGESzl5-fill-1" offset="100%" stop-color="#84daf0"/></linearGradient><linearGradient id="ekQywUGESzl6-fill" x1="10.36" y1="17.48" x2="11.78" y2="20.01" spreadMethod="pad" gradientUnits="userSpaceOnUse" gradientTransform="translate(0 0)"><stop id="ekQywUGESzl6-fill-0" offset="0%" stop-color="#cfeaf7"/><stop id="ekQywUGESzl6-fill-1" offset="100%" stop-color="#84daf0"/></linearGradient><linearGradient id="ekQywUGESzl7-fill" x1="14.79" y1="17.17" x2="15.16" y2="18.01" spreadMethod="pad" gradientUnits="userSpaceOnUse" gradientTransform="translate(0 0)"><stop id="ekQywUGESzl7-fill-0" offset="0%" stop-color="#cfeaf7"/><stop id="ekQywUGESzl7-fill-1" offset="100%" stop-color="#84daf0"/></linearGradient><linearGradient id="ekQywUGESzl9-fill" x1="10.1" y1="19.04" x2="5.07" y2="15.54" spreadMethod="pad" gradientUnits="userSpaceOnUse" gradientTransform="translate(0 0)"><stop id="ekQywUGESzl9-fill-0" offset="0%" stop-color="#f2f7ff"/><stop id="ekQywUGESzl9-fill-1" offset="100%" stop-color="#fff"/></linearGradient><linearGradient id="ekQywUGESzl10-fill" x1="13.04" y1="18.64" x2="13.1" y2="15.81" spreadMethod="pad" gradientUnits="userSpaceOnUse" gradientTransform="translate(0 0)"><stop id="ekQywUGESzl10-fill-0" offset="0%" stop-color="#2fa0bc"/><stop id="ekQywUGESzl10-fill-1" offset="100%" stop-color="#fefefe"/></linearGradient><linearGradient id="ekQywUGESzl11-fill" x1="11.74" y1="16.72" x2="11.18" y2="15.88" spreadMethod="pad" gradientUnits="userSpaceOnUse" gradientTransform="translate(0 0)"><stop id="ekQywUGESzl11-fill-0" offset="0%" stop-color="#2fa0bc"/><stop id="ekQywUGESzl11-fill-1" offset="100%" stop-color="#fefefe"/></linearGradient><linearGradient id="ekQywUGESzl12-fill" x1="2.54" y1="18.28" x2="3.78" y2="15.57" spreadMethod="pad" gradientUnits="userSpaceOnUse" gradientTransform="translate(0 0)"><stop id="ekQywUGESzl12-fill-0" offset="0%" stop-color="#2fa0bc"/><stop id="ekQywUGESzl12-fill-1" offset="100%" stop-color="#fefefe"/></linearGradient><linearGradient id="ekQywUGESzl13-fill" x1="8.1" y1="19.5" x2="7.06" y2="15.07" spreadMethod="pad" gradientUnits="userSpaceOnUse" gradientTransform="translate(0 0)"><stop id="ekQywUGESzl13-fill-0" offset="0%" stop-color="#2fa0bc"/><stop id="ekQywUGESzl13-fill-1" offset="100%" stop-color="#fefefe"/></linearGradient><radialGradient id="ekQywUGESzl14-fill" cx="0" cy="0" r="1.14" spreadMethod="pad" gradientUnits="userSpaceOnUse" gradientTransform="matrix(0.812397 0 0 1 5.395068 15.24)"><stop id="ekQywUGESzl14-fill-0" offset="0%" stop-color="#fefefe"/><stop id="ekQywUGESzl14-fill-1" offset="100%" stop-color="#e0ebff"/></radialGradient><radialGradient id="ekQywUGESzl15-fill" cx="0" cy="0" r="2.76" spreadMethod="pad" gradientUnits="userSpaceOnUse" gradientTransform="matrix(-0.436148 0 0 1.08695 3.58688 10.641235)"><stop id="ekQywUGESzl15-fill-0" offset="0%" stop-color="#fefefe"/><stop id="ekQywUGESzl15-fill-1" offset="100%" stop-color="#e0ebff"/></radialGradient><radialGradient id="ekQywUGESzl17-fill" cx="0" cy="0" r="3.68" spreadMethod="pad" gradientUnits="userSpaceOnUse" gradientTransform="matrix(-0.624238 0 0 1 9.770105 7.64)"><stop id="ekQywUGESzl17-fill-0" offset="0%" stop-color="#fefefe"/><stop id="ekQywUGESzl17-fill-1" offset="100%" stop-color="#e0ebff"/></radialGradient><radialGradient id="ekQywUGESzl24-fill" cx="0" cy="0" r="8.59" spreadMethod="pad" gradientUnits="userSpaceOnUse" gradientTransform="matrix(0.402763 0 0 0.924929 6.771009 8.316188)"><stop id="ekQywUGESzl24-fill-0" offset="0%" stop-color="#fefefe"/><stop id="ekQywUGESzl24-fill-1" offset="100%" stop-color="#e0ebff"/></radialGradient><linearGradient id="ekQywUGESzl33-fill" x1="0.17" y1="18.92" x2="0.13" y2="20.68" spreadMethod="pad" gradientUnits="userSpaceOnUse" gradientTransform="translate(0 0)"><stop id="ekQywUGESzl33-fill-0" offset="0%" stop-color="#88dbf0"/><stop id="ekQywUGESzl33-fill-1" offset="100%" stop-color="#5bc6de"/></linearGradient><linearGradient id="ekQywUGESzl34-fill" x1="10.36" y1="18.61" x2="11.78" y2="21.53" spreadMethod="pad" gradientUnits="userSpaceOnUse" gradientTransform="translate(0 0)"><stop id="ekQywUGESzl34-fill-0" offset="0%" stop-color="#88dbf0"/><stop id="ekQywUGESzl34-fill-1" offset="100%" stop-color="#5bc6de"/></linearGradient><linearGradient id="ekQywUGESzl35-fill" x1="14.79" y1="18.41" x2="15.16" y2="19.42" spreadMethod="pad" gradientUnits="userSpaceOnUse" gradientTransform="translate(0 0)"><stop id="ekQywUGESzl35-fill-0" offset="0%" stop-color="#88dbf0"/><stop id="ekQywUGESzl35-fill-1" offset="100%" stop-color="#5bc6de"/></linearGradient><linearGradient id="ekQywUGESzl54-fill" x1="1.6" y1="15.91" x2="3.81" y2="15.91" spreadMethod="pad" gradientUnits="userSpaceOnUse" gradientTransform="translate(0 0)"><stop id="ekQywUGESzl54-fill-0" offset="0%" stop-color="#2496b3"/><stop id="ekQywUGESzl54-fill-1" offset="100%" stop-color="#6cd4ec"/></linearGradient><linearGradient id="ekQywUGESzl55-fill" x1="3.39" y1="15.5" x2="2.02" y2="14.38" spreadMethod="pad" gradientUnits="userSpaceOnUse" gradientTransform="translate(0 0)"><stop id="ekQywUGESzl55-fill-0" offset="0%" stop-color="#2496b3"/><stop id="ekQywUGESzl55-fill-1" offset="100%" stop-color="#6cd4ec"/></linearGradient><linearGradient id="ekQywUGESzl57-fill" x1="2.5" y1="16.55" x2="2.86" y2="15.74" spreadMethod="pad" gradientUnits="userSpaceOnUse" gradientTransform="translate(0 0)"><stop id="ekQywUGESzl57-fill-0" offset="0%" stop-color="#2fa0bc"/><stop id="ekQywUGESzl57-fill-1" offset="100%" stop-color="#fefefe"/></linearGradient><linearGradient id="ekQywUGESzl68-fill" x1="12.92" y1="16.39" x2="14.13" y2="16.39" spreadMethod="pad" gradientUnits="userSpaceOnUse" gradientTransform="translate(0 0)"><stop id="ekQywUGESzl68-fill-0" offset="0%" stop-color="#f6bb3c"/><stop id="ekQywUGESzl68-fill-1" offset="100%" stop-color="#db9f1f"/></linearGradient><linearGradient id="ekQywUGESzl69-fill" x1="11.94" y1="15.87" x2="14.06" y2="15.87" spreadMethod="pad" gradientUnits="userSpaceOnUse" gradientTransform="translate(0 0)"><stop id="ekQywUGESzl69-fill-0" offset="0%" stop-color="#f6bb3c"/><stop id="ekQywUGESzl69-fill-1" offset="100%" stop-color="#db9f1f"/></linearGradient></defs><polygon points="0.7,16.6 0.7,17.73 2.16,18.37 2.16,17.24" clip-rule="evenodd" fill="none" fill-rule="evenodd"/><g clip-rule="evenodd"><polygon points="0.7,16.59 0.7,17.72 2.16,18.36 2.16,17.23" clip-rule="evenodd" fill="url(#ekQywUGESzl4-fill)" fill-rule="evenodd"/><polygon points="0,17.79 0,18.92 0.3,18.96 0.58,19 0.85,19.04 1.11,19.08 1.35,19.11 1.59,19.15 1.81,19.18 2.03,19.22 2.24,19.25 2.44,19.28 2.63,19.31 2.83,19.33 3.01,19.36 3.2,19.39 3.39,19.42 3.57,19.45 3.76,19.48 3.94,19.5 4.13,19.53 4.33,19.56 4.53,19.6 4.73,19.63 4.95,19.66 5.17,19.69 5.4,19.73 5.64,19.77 5.89,19.81 6.16,19.85 6.44,19.89 6.73,19.94 7.04,19.99 7.37,20.04 7.37,18.91 7.04,18.86 6.73,18.81 6.44,18.77 6.16,18.72 5.89,18.68 5.64,18.64 5.4,18.6 5.17,18.57 4.95,18.53 4.73,18.5 4.53,18.47 4.33,18.44 4.13,18.41 3.94,18.38 3.76,18.35 3.57,18.32 3.39,18.29 3.2,18.26 3.01,18.24 2.83,18.21 2.63,18.18 2.44,18.15 2.24,18.12 2.03,18.09 1.81,18.06 1.59,18.02 1.35,17.99 1.11,17.95 0.85,17.91 0.58,17.87 0.3,17.83" clip-rule="evenodd" fill="url(#ekQywUGESzl5-fill)" fill-rule="evenodd"/><polygon points="7.37,18.91 7.37,20.04 14.77,18.59 14.77,17.46" clip-rule="evenodd" fill="url(#ekQywUGESzl6-fill)" fill-rule="evenodd"/><polygon points="14.77,17.46 14.77,18.59 15.18,17.72 15.18,16.59" clip-rule="evenodd" fill="url(#ekQywUGESzl7-fill)" fill-rule="evenodd"/></g><polygon points="14.77,17.47 14.77,18.6 15.18,17.73 15.18,16.6" clip-rule="evenodd" fill="none" fill-rule="evenodd"/><path d="M3.61,15.93L0.7,16.6l1.46.64L0,17.8c3.27.48,3.79.56,7.37,1.12l7.4-1.45.41-.87-.96-.28-.36-.44-.86.07-9.39-.02Z" clip-rule="evenodd" fill="url(#ekQywUGESzl9-fill)" fill-rule="evenodd"/><path d="M14.34,16.36l-.12-.04-.36-.44-.71.06c-.02.1.14.19.44.22l-1.49.75h.32l1.37-.68-.87.86c-.02.02.02.04.08.04.07,0,.13-.02.15-.04l.87-.86v.68h.32v-.55Z" clip-rule="evenodd" fill="url(#ekQywUGESzl10-fill)" fill-rule="evenodd"/><polygon points="11.82,15.95 11.75,15.95 11.18,16.27 11.26,16.27" clip-rule="evenodd" fill="url(#ekQywUGESzl11-fill)" fill-rule="evenodd"/><path d="M3.61,15.93l-1.1.26-.37.45c-.12.12.14.21.56.21.43,0,.87-.09.99-.21l.85-.71h-.93Z" clip-rule="evenodd" fill="url(#ekQywUGESzl12-fill)" fill-rule="evenodd"/><path d="M11.56,15.95l-2.34-.01c-.92.64-1.77,1.25-1.69,1.25c0,0,1.28-.01,2.41,0c.03,0,.11-.05.13-.07.05-.07,0-.17.13-.28.12-.08.65-.43,1.36-.89Zm-2.64-.01h-2.05c-.66.45-1.2.81-1.4.9-.23.11-.64.21-.81.28-.06.02-.14.07-.11.07c1.14-.01,2.4,0,2.4,0c.11,0,1.13-.68,1.97-1.25Z" clip-rule="evenodd" fill="url(#ekQywUGESzl13-fill)" fill-rule="evenodd"/><path d="M3.83,13.3c0,0,1.18,3.24,1.05,3.54-.05.11-.28.21-.34.28-.02.02-.02.07.01.07c1.13-.01,2.4,0,2.4,0c.18,0-.38-2.01-.38-2.01L3.83,13.3Z" clip-rule="evenodd" fill="url(#ekQywUGESzl14-fill)" fill-rule="evenodd"/><path d="M4.53,13.7c0,0-2.27-.29-2.37-2.2l-.13.07.13-.46-.09.06.19-.56c.47-1.98,2.41-2.9,2.41-2.9L4.53,13.7Z" clip-rule="evenodd" fill="url(#ekQywUGESzl15-fill)" fill-rule="evenodd"/><g id="ekQywUGESzl16_tr" transform="translate(8.442442,9.71) rotate(0.000006)"><g transform="translate(-8.442439,-9.709998)"><path d="M8.51,7.56c0,0,1.49.08,2.09-1.6c1.57-4.45,2.29-.53,1.05,2.52l-.07.39-.06-.08-.05.37-.05-.09-.07.43-.09-.22c-.27.48-.6.91-1,1.24-2.72,2.3-3.25-.94-1.75-2.96Z" transform="translate(0 0.057672)" clip-rule="evenodd" fill="url(#ekQywUGESzl17-fill)" fill-rule="evenodd"/><path d="M11.24,4.47c.03.02.07.02.09,0c.02-.03.02-.06,0-.09-.08-.07-.18-.43-.18-.44-.01-.03-.04-.05-.07-.04s-.05.05-.04.08c0,0,.1.39.2.49Z" clip-rule="evenodd"/><path d="M11.67,3.97c0,.03.03.06.06.06.04,0,.06-.02.07-.06l.01-.28c0-.03-.03-.06-.06-.06-.04,0-.06.02-.07.06l-.01.28Z" clip-rule="evenodd"/><path d="M11.94,4.01c-.01.03,0,.06.03.08s.06.01.08-.02l.15-.26c.02-.03.01-.07-.02-.09-.03-.01-.07,0-.09.03l-.15.26Z" clip-rule="evenodd"/><path d="M12.12,4.35c-.02.03-.01.06.02.08s.06.01.08-.02l.19-.31c.01-.02,0-.06-.02-.08-.03-.02-.07-.01-.09.02l-.18.31Z" clip-rule="evenodd"/><path d="M12.23,4.65c-.03,0-.06.03-.05.06c0,.04.03.06.07.06.06-.01.24-.28.24-.28.01-.03.01-.06-.02-.08s-.07-.01-.09.02c0,0-.14.21-.15.22Z" clip-rule="evenodd"/><path d="M11.73,4.33c-.15,0-.28.15-.28.35c0,.19.13.34.28.34.16,0,.29-.15.29-.34c0-.2-.13-.35-.29-.35Z" clip-rule="evenodd" fill="#bfcedf" fill-rule="evenodd"/></g></g><path d="M9.45,1.69c-.3-.25-1.07-.86-1.55-.96.23-.29.02-.73-.35-.73-.56,0-.61.82-.07.89C6.27,2.71,3.430001,9.820001,3.390001,11.170001C3.359999,12.410001,3.85,15.05,6.91,15.8c.04.02.08.02.12.03.2.68.42,1.36.5,1.36c0,0,1.27-.01,2.41,0c.03,0,.03-.05.01-.07-.06-.07-.29-.17-.34-.28-.06-.14-.23-1.03-.39-1.92.77-1.34.61-3.88-.2-6.34-.32-1-.11-2.39.15-3.67l.15.17-.05-.57.1.12-.02-.45.06.1.01-.48c.1-.5.27-1.14.25-1.64.29.17.67-.04.67-.39c0-.54-.79-.61-.89-.08Z" clip-rule="evenodd" fill="url(#ekQywUGESzl24-fill)" fill-rule="evenodd"/><path d="M7.87,1.79c-.1.02-1.57.29-1.65.25-.08-.03.35,1.94.77,1.96.41.03.88-2.21.88-2.21Z" clip-rule="evenodd" fill="#bfcedf" fill-rule="evenodd"/><path d="M6.87,2.31c.05.04.07.07.05.11-.03.05-.45.35-.53.41-.03.02-.06.02-.08-.01s-.13-.67-.15-.76c0-.04.02-.07.05-.07.1-.02.57.25.66.32Z" clip-rule="evenodd"/><path d="M7.78,1.32c.04,0,.08.07.08.16c0,.08-.04.15-.08.15s-.08-.07-.08-.15c0-.09.04-.16.08-.16Z" clip-rule="evenodd" fill-rule="evenodd"/><path d="M8.18,1.55c.04,0,.08.06.08.15c0,.08-.04.15-.08.15-.05,0-.08-.07-.08-.15c0-.09.03-.15.08-.15Z" clip-rule="evenodd" fill-rule="evenodd"/><path d="M8.28,1.19c.2.14.16.28.16.28l-.12-.02c0,0,.02-.07-.11-.16l.07-.1Z" clip-rule="evenodd"/><path d="M7.99,1.16c-.17-.05-.18-.03-.18-.03L7.7,1.06c0,0,.08-.09.33-.01l-.04.11Z" clip-rule="evenodd"/><path d="M6.82,2.87c.33-.11.42-.5.42-.5l.12.03c0,0-.1.46-.5.59l-.04-.12Z" transform="matrix(.959644-.281218 0.281218 0.959644-.46754 2.101993)" clip-rule="evenodd"/><g id="ekQywUGESzl32_to" transform="translate(7.59,19.6)"><g transform="scale(1,1.069012) translate(-7.59,-19.64)" clip-rule="evenodd"><path d="M0,18.92v1.52c2.46.36,4.91.74,7.37,1.12v-1.52c-2.46-.38-4.91-.76-7.37-1.12Z" clip-rule="evenodd" fill="url(#ekQywUGESzl33-fill)" fill-rule="evenodd"/><polygon points="7.37,20.04 7.37,21.56 14.77,20.11 14.77,18.59" clip-rule="evenodd" fill="url(#ekQywUGESzl34-fill)" fill-rule="evenodd"/><polygon points="14.77,18.59 14.77,20.11 15.18,19.24 15.18,17.72" clip-rule="evenodd" fill="url(#ekQywUGESzl35-fill)" fill-rule="evenodd"/></g></g><path d="M4.84,17.08c.03-.03.09-.03.12,0s.03.07.01.11h-.22c.04-.05.07-.09.09-.11Z" clip-rule="evenodd"/><path d="M7.63,0.3c.12,0,.22.1.22.23c0,.12-.1.22-.22.22s-.22-.1-.22-.22c0-.13.1-.23.22-.23Z" clip-rule="evenodd" fill="#bfcedf" fill-rule="evenodd"/><path d="M9.78,1.98c.14,0,.24-.11.24-.23c0-.13-.1-.23-.24-.23-.13,0-.23.1-.23.23c0,.12.1.23.23.23Z" clip-rule="evenodd" fill="#bfcedf" fill-rule="evenodd"/><path d="M5.1,17.08c.04-.03.09-.03.12,0s.04.07.01.11h-.22c.04-.05.07-.09.09-.11Z" clip-rule="evenodd"/><path d="M5.38,17.08c.03-.03.08-.03.12,0c.02.03.03.07.01.11h-.22c.04-.05.07-.09.09-.11Z" clip-rule="evenodd"/><path d="M9.65,17.08c-.03-.03-.09-.03-.12,0s-.03.07-.01.11h.22c-.04-.05-.07-.09-.09-.11Z" clip-rule="evenodd"/><path d="M9.39,17.08c-.04-.03-.09-.03-.12,0s-.04.07-.02.11h.23c-.04-.05-.08-.09-.09-.11Z" clip-rule="evenodd"/><path d="M9.11,17.08c-.03-.03-.08-.03-.12,0-.03.03-.03.07-.01.11h.22c-.04-.05-.07-.09-.09-.11Z" clip-rule="evenodd"/><g id="ekQywUGESzl44_to" transform="translate(7.48,19.447206)"><path d="M0.26,18.88c.9.44,1.55.61,2.11.67v.08c-.57-.07-1.23-.24-2.14-.68l.03-.07Zm4.37.7c.28.02.59.06.94.13l.14.03c.38.07.8.16,1.22.22v.07c-.43-.06-.85-.15-1.24-.22l-.14-.03c-.34-.07-.64-.11-.92-.13v-.07Zm3.12.47c.8.06,1.59,0,2.22-.36l.03-.01v.08c-.64.35-1.44.42-2.25.37v-.08Zm3.97-1.12c.66-.2,1.11-.17,1.46-.11v.07c-.35-.06-.8-.09-1.46.11v-.07Zm1.86-.03c.35.08.66.12,1.11-.15l.04.06c-.48.28-.79.24-1.15.16v-.07Z" transform="translate(-7.48,-19.447206)" clip-rule="evenodd" fill="#fefefe"/></g><g id="ekQywUGESzl45_to" transform="translate(7.675,19.706263)"><path d="M2.44,19.84c.37.03.71.02,1.07.01.11,0,.23-.01.34-.01v.07c-.11,0-.23.01-.34.01-.36.01-.7.02-1.08-.01l.01-.07Zm2.92.1c.06.01.13.02.21.04l.18.03c.23.05.47.1.72.14v.08c-.25-.05-.5-.1-.74-.15l-.18-.03c-.06-.01-.13-.03-.19-.04v-.07Zm3.58.36c.37-.06.72-.16,1.03-.34.75-.41,1.34-.65,1.81-.78.1-.03.19-.05.28-.07v.07c-.08.02-.17.04-.26.07-.47.12-1.05.36-1.8.78-.32.18-.68.28-1.06.34v-.07Zm3.58-1.25c.15-.01.28-.01.4,0l-.01.07c-.12-.01-.24-.01-.39,0v-.07Z" transform="translate(-7.675,-19.706263)" clip-rule="evenodd" fill="#fefefe"/></g><g id="ekQywUGESzl46_to" transform="translate(8.41,20.485)"><path d="M6.82,20.51c.24.04.48.07.72.1v.07c-.24-.03-.48-.06-.72-.1v-.07Zm1.55.13c.58-.01,1.13-.12,1.6-.38l.03.07c-.48.26-1.04.37-1.63.38v-.07Z" transform="translate(-8.41,-20.485)" clip-rule="evenodd" fill="#fefefe"/></g><path d="M18.23,3.26c-.01.03-2.99,7.81-1.4,11.22l-.01.01c-1.6-3.42,1.39-11.21,1.39-11.23h.02Z" clip-rule="evenodd" fill="#fff"/><path d="M16.83,14.78c0,0,.22.06.22.36c0,.15,0,.05,0,.2c0,.03-.1.06-.22.06-.13,0-.23-.03-.23-.06c0-.15,0-.05,0-.2c0-.3.23-.36.23-.36Z" clip-rule="evenodd" fill="#ed5e3d" fill-rule="evenodd"/><path d="M17.05,15.14v.12c0,.03-.1.06-.22.06-.13,0-.23-.03-.23-.06v-.12c0,.03.1.06.23.06.12,0,.22-.03.22-.06Z" clip-rule="evenodd" fill="#fff" fill-rule="evenodd"/><g id="ekQywUGESzl50_to" transform="translate(16.825001,15.44)"><path d="M17.28,15.38c0,.07-.2.12-.45.12-.26,0-.46-.05-.46-.12" transform="translate(-16.825001,-15.44)" clip-rule="evenodd" fill="none" fill-rule="evenodd" stroke="#fff" stroke-width="0.07" stroke-miterlimit="22.9256"/></g><path d="M16.8,14.79v-.01-.29v0c0-.01.01-.01.03-.01.01,0,.02,0,.02.01v0v.29.01c0,0-.01,0-.02,0-.02,0-.03,0-.03,0Z" clip-rule="evenodd" fill="#fff"/><g id="ekQywUGESzl52_to" transform="translate(16.825,15.57)"><path d="M17.52,15.48c0,.1-.31.18-.69.18-.39,0-.7-.08-.7-.18" transform="translate(-16.825,-15.57)" clip-rule="evenodd" fill="none" fill-rule="evenodd" stroke="#fff" stroke-width="0.07" stroke-miterlimit="22.9256"/></g><g clip-rule="evenodd"><path d="M3.48,16.64c0,.12-.35.21-.78.21-.42,0-.77-.09-.77-.21L1.6,14.97c.06.16.53.27,1.1.27.58,0,1.05-.11,1.11-.27l-.33,1.67Z" clip-rule="evenodd" fill="url(#ekQywUGESzl54-fill)" fill-rule="evenodd"/><path d="M2.7,14.64c.21,0,.4.01.56.04.34.05.56.15.56.26c0,.17-.5.3-1.12.3-.38,0-.71-.05-.91-.13-.13-.04-.2-.1-.2-.17c0-.17.5-.3,1.11-.3Z" clip-rule="evenodd" fill="url(#ekQywUGESzl55-fill)" fill-rule="evenodd"/><path d="M1.79,15.17c-.03,0-.06-.02-.06-.06c0-.03.03-.05.06-.05.02,0,.05.01.05.04.1.03.22.06.35.08.16.02.33.03.51.03.31,0,.58-.03.78-.09.19-.05.3-.11.3-.18c0-.04-.04-.08-.12-.12-.09-.04-.21-.07-.36-.1-.01.01-.02.02-.04.02-.03,0-.05-.03-.05-.06s.02-.06.05-.06.05.01.06.03c.15.03.27.06.37.11s.16.11.16.18c0,.1-.13.19-.35.25-.2.06-.49.09-.8.09-.18,0-.36-.01-.52-.03-.14-.02-.26-.05-.36-.09-.01.01-.02.01-.03.01Z" clip-rule="evenodd" fill="#fefefe" fill-rule="evenodd"/></g><path d="M2.42,15.95c.03,0,.05-.01.05-.03c0-.01,0-.02-.01-.02s-.01-.01-.02-.01-.01,0-.02,0v.02c0,.02,0,.03,0,.04Zm-.03.16v0c-.01,0-.01,0-.02,0c0-.02,0-.04,0-.06c0-.01,0-.03,0-.04.01-.02.01-.04.01-.05v-.03-.01c0-.01,0-.02,0-.02s0-.01,0-.01s0,0,0-.01c0,0,.01-.01.01-.01c0-.01,0-.01,0-.02c0,0,.01,0,.02,0s.03,0,.04.01c.02,0,.03.01.03.01.01.01.01.01.01.01.01,0,.01.01.02.02c0,.01,0,.02,0,.02s0,.01,0,.01c0,.01-.01.01-.01.02c0,0,0,.01-.01.02s-.01.01-.02.02c-.02,0-.03.01-.05.01c0,0-.01.01-.01.02c0,.03,0,.04,0,.06v0c0,.01,0,.01,0,.01v0c0,.01,0,.01,0,.02-.01,0-.01,0-.02,0Zm.29.01h-.01c0,0,0-.01,0-.02v-.02c0,0,0-.01,0-.01v-.01c0,0,0-.01,0-.03c0-.01,0-.02,0-.03c0-.02,0-.04,0-.07v-.01c0-.02,0-.04,0-.05s.01-.01.01-.01c.01,0,.01,0,.01,0c.01,0,.01,0,.02.01c0,0,0,.03,0,.07c0,.03,0,.05,0,.08v.02c0,0,0,0,0,0s0,0,0,.01c0,0,0,.01,0,.01c0,.01,0,.01,0,.02c0,0,0,.01,0,.01s0,0,0,.01v0c0,.01,0,.02,0,.02-.01,0-.01,0-.01,0-.01,0-.01,0-.01,0s0,0,0,0s0,0-.01,0Zm-.12,0c-.01,0-.02,0-.03,0c0-.01,0-.04,0-.08s0-.07,0-.08s0-.01,0-.02s0-.01,0-.02s0-.01,0-.01c0-.01,0-.01,0-.02c0,0,0,0,0-.01c0,0,0-.01,0-.02h.03v0c0,0,.01,0,.01,0c0,.01.01.01.01.02c0,0-.01.01-.01.02v.01c0,.01,0,.03,0,.04s0,.02,0,.02c.01,0,.02.01.03.01s.02.01.02.01c.01,0,.01,0,.01,0c.01.01.01.01.01.01.01.01.01.01.01.02c0,0,0,.01,0,.01c0,.01,0,.02,0,.02c0,.01,0,.01,0,.01c0,.01,0,.01,0,.02c0,0-.01.01-.01.01-.01.01-.01.01-.01.01-.01.01-.02.01-.03.01-.01.01-.03.01-.04.01Zm.02-.03c0,0,.01-.01.02-.01c0,0,0,0,.01,0c0,0,0-.01.01-.01v-.01c0,0,0,0,0-.01s0-.01-.01-.02c0-.01-.01-.02-.03-.02-.01,0-.01,0-.01,0c0,.01,0,.01,0,.01c0,.01,0,.01,0,.01l-.01.04v.01c.01.01.01.01.02.01Zm.29-.03c0,.01-.01.03-.02.04s-.03.01-.04.02c-.01,0-.02,0-.03,0c0,0,0,0-.01,0c0,0-.01,0-.02,0c0-.01,0-.02,0-.05c0-.01,0-.02,0-.03s0-.03,0-.05c0-.01,0-.03,0-.03s0,0,0-.01c0,0,0-.01,0-.01c0-.01,0-.01,0-.02c0,0,0-.01,0-.01c0-.01,0-.01,0-.02c0,0,0-.01,0-.01c0-.01,0-.01,0-.02v0c.01,0,.02,0,.03,0c0,0,0,0,.01,0c0,0,.01,0,.01,0h.02c0,0,0,0,.01,0c0,0,.01,0,.01,0c.01,0,.01,0,.02,0v.02c0,0,0,0,0,0s0,0,0,0c0,.01,0,.01,0,.01s-.01.01-.01.01v0c-.01,0-.02,0-.02,0-.01,0-.01,0-.02,0v0c-.01,0-.02,0-.02,0c0,.02,0,.03,0,.05c0,.01,0,.02-.01.02.01,0,.02,0,.03.01.01,0,.02,0,.02,0c.01.01.02.01.03.02c0,.01,0,.01.01.02c0,0,0,0,0,.01c0,0,0,.01,0,.02v0c0,0,0,0,0,.01Zm-.09.01l.01.01c0,.01,0,.01.01.01c0,0,.01-.01.01-.01.01,0,.01,0,.02,0c0-.01,0-.01,0-.01s0,0,.01-.01c0,0,0,0,0,0c0-.01,0-.01,0-.01c0-.02-.01-.03-.03-.04c0,0-.01,0-.02,0c0,0,0,0-.01,0v0c0,.01,0,.01,0,.01v0c0,0,0,.01,0,.01v.04ZM2.96,16h.04c.01,0,.01,0,.01,0v0c-.01-.02-.01-.03-.02-.04c0-.02,0-.02-.01-.03v.01c0,.02,0,.02-.01.03v.01c0,.01-.01.02-.01.02Zm-.03.12v0c0,0,0,0-.01,0-.02,0-.02,0-.02,0s0-.01,0-.01s0-.01,0-.03c0,0,0-.01.01-.01c0,0,0-.01,0-.02s0-.02.01-.03c0,0,0,0,0-.01s0-.02.01-.03c0-.01.01-.03.02-.06s.02-.05.02-.05c0-.01,0-.02.01-.02c0,0,.01.01.02.03c0,0,0,.01,0,.01s.01.01.01.02.01.01.01.02c0,0,0,.01.01.01l.02.06c.03.06.04.09.04.1v0c0,0,0,0-.01,0c0,0,0,0,0,0s0,0,0,0c-.01,0-.01,0-.01,0v0c-.01,0-.01,0-.01,0s-.01,0-.01,0-.01-.02-.02-.04-.01-.02-.01-.03c0,0-.01,0-.01,0s0,0-.01,0v0c0,0-.01,0-.01,0-.01,0-.02.01-.04.01c0,.01-.01.03-.01.06l-.01.02Z" clip-rule="evenodd" fill="url(#ekQywUGESzl57-fill)"/><path d="M13.26,10.8c-.51.86-1.01,1.74-1.49,2.61v.01h.01c.48-.88.98-1.75,1.49-2.61.52-.86,1.05-1.71,1.59-2.56.54-.84,1.09-1.68,1.65-2.52.56-.83,1.13-1.65,1.71-2.47l-.01-.01c-.59.82-1.16,1.64-1.72,2.47-.56.84-1.1,1.68-1.64,2.52-.54.85-1.07,1.7-1.59,2.56Z" clip-rule="evenodd" fill="#fff"/><polygon points="11.18,16.27 11.18,14.27 10.92,13.98 10.98,13.94 11.22,14.2 11.46,13.94 11.52,13.98 11.26,14.27 11.26,16.27" clip-rule="evenodd" fill="#f6bb3c"/><g clip-rule="evenodd"><ellipse rx="0.18" ry="0.31" transform="translate(11.66 13.62)" clip-rule="evenodd" fill="#3a72b7" fill-rule="evenodd"/><ellipse rx="0.09" ry="0.16" transform="translate(11.66 13.62)" clip-rule="evenodd" fill="#fff" fill-rule="evenodd"/><ellipse rx="0.18" ry="0.31" transform="translate(11.8 13.62)" clip-rule="evenodd" fill="#3a72b7" fill-rule="evenodd"/><ellipse rx="0.09" ry="0.16" transform="translate(11.8 13.62)" clip-rule="evenodd" fill="#fff" fill-rule="evenodd"/><ellipse rx="0.05" ry="0.09" transform="translate(11.8 13.62)" clip-rule="evenodd" fill="#003348" fill-rule="evenodd"/></g><path d="M17.69,3.86c.12-.18.25-.35.37-.53.01.01.01.01.01.01.02.02.03.03.05.03l.02-.02c-.01,0-.01,0-.01,0-.02,0-.03-.01-.04-.02s-.01-.01-.01-.02l.06-.09c.01,0,.02.01.03.02s.02.02.02.04s0,.04-.02.05l-.02.04c.01-.01.03-.01.04-.03.01-.01.02-.03.02-.06c0-.02-.01-.04-.02-.06-.01-.01-.02-.02-.03-.02l.02-.03-.06-.03c-.76,1.04-1.5,2.09-2.23,3.16-.73,1.06-1.43,2.14-2.13,3.23-.68,1.09-1.35,2.19-1.99,3.31-.64,1.13-1.21,2.19-1.77,3.36l.21.08c.55-1.17,1.09-2.22,1.71-3.35.13-.23.27-.47.4-.7c0,0,.01.01.01.01.02.02.05.03.08.03l.02-.03c-.01,0-.02.01-.03.01-.02,0-.04-.01-.05-.03-.01,0-.01-.01-.01-.02l.06-.11c.02,0,.04.01.05.02s.02.03.02.06c0,.02-.02.05-.03.07l-.02.03c.02,0,.04-.01.05-.03.02-.02.03-.04.03-.07s-.01-.06-.03-.08c-.01-.01-.03-.03-.05-.03.47-.83.96-1.65,1.46-2.46.11-.18.23-.36.34-.54c0,0,.01.01.01.01.02.02.04.03.07.03l.02-.03c0,0-.01.01-.02.01-.02,0-.04-.01-.05-.03c0,0-.01-.01-.01-.02l.07-.11c.02,0,.03.01.04.02s.02.03.02.06c0,.02-.01.04-.02.05l-.03.05c.02,0,.04-.01.05-.03.02-.02.03-.05.03-.07c0-.03-.01-.06-.03-.08-.01-.01-.03-.02-.04-.03.53-.85,1.08-1.7,1.64-2.54l.06-.08c0,0,0,0,.01.01.01.02.04.03.06.03l.02-.03c0,0-.01,0-.01,0-.02,0-.04-.01-.05-.02s-.01-.01-.01-.02l.08-.12c.01.01.02.01.03.02.01.02.02.04.02.06s-.01.04-.02.06l-.04.05c.02-.01.04-.02.06-.03.01-.02.02-.05.02-.08s-.01-.06-.02-.07c-.01-.02-.02-.02-.04-.03.5-.73,1.05-1.54,1.55-2.24Z" clip-rule="evenodd" fill="#003348"/><g clip-rule="evenodd"><path d="M13,15.95l.08-.08l1.05,1.04h-.33l-.68-.68v.86c0,.02-.05.04-.12.04-.06,0-.11-.02-.11-.04v-.86l-.68.68h-.33l1.04-1.04.08.08Z" clip-rule="evenodd" fill="url(#ekQywUGESzl68-fill)" fill-rule="evenodd"/><path d="M13,15.56c.27,0,.52.03.71.08h.35v.23c0,.17-.47.31-1.06.31-.58,0-1.06-.14-1.06-.31v-.23h.36c.19-.05.43-.08.7-.08Z" clip-rule="evenodd" fill="url(#ekQywUGESzl69-fill)" fill-rule="evenodd"/><ellipse rx="1.06" ry="0.31" transform="translate(13 15.64)" clip-rule="evenodd" fill="#f6bb3c" fill-rule="evenodd"/></g></svg>
